# xmcd CD database file
#
# Track frame offsets:
#	150
#	3978
#	23963
#	37017
#	57251
#	76987
#	96512
#	116045
#	136332
#	149176
#	166456
#	183173
#	201663
#	204746
#	219102
#	221333
#	238511
#	256280
#	273998
#	275479
#	294588
#
# Disc length: 4213 seconds
#
# Revision: 0
# Processed by: cddbd v1.5.2PL0 Copyright (c) Steve Scherf et al.
# Submitted via: CdAid (MTCDDB.DLL V2003.12.21)
#
DISCID=48107315
DTITLE=Mondo Marcio - Nessuna Via Di Uscita Mixtape
DYEAR=2006
DGENRE=Hip-Hop
TTITLE0=Intro
TTITLE1=Ultima Corsa
TTITLE2=Lo Devi Amare
TTITLE3=Le Strade Guardano feat. Primo
TTITLE4=Non Piangere
TTITLE5=Perchè deve andare così?!
TTITLE6=The One
TTITLE7=La Città
TTITLE8=L.A. Strippers
TTITLE9=Breathe Easy feat. Lou Reigns and Spoon
TTITLE10=Nero o Bianco
TTITLE11=Non Moriremo Mai
TTITLE12=Jemal's War feat. Jemal
TTITLE13=I Marci Mi Cercano
TTITLE14=Skit
TTITLE15=Una Nel Mondo
TTITLE16=Il Motivo
TTITLE17=Sono Un Sognatore
TTITLE18=Skit
TTITLE19=Candy
TTITLE20=If I Die 2nite
EXTD=ID3G:   7 YEAR: 2006
EXTT0=
EXTT1=
EXTT2=
EXTT3=
EXTT4=
EXTT5=
EXTT6=
EXTT7=
EXTT8=
EXTT9=
EXTT10=
EXTT11=
EXTT12=
EXTT13=
EXTT14=
EXTT15=
EXTT16=
EXTT17=
EXTT18=
EXTT19=
EXTT20=
PLAYORDER=
